<svg width="40" height="40" viewBox="0 0 48 48" xmlns="http://www.w3.org/2000/svg">
    <g fill="currentColor">
        <path d="M34 44c-2.6 0-4.8-1.68-5.64-4.02H15.68l-2 3.1c-.6.92-1.84 1.18-2.76.58-.92-.6-1.18-1.84-.58-2.76l7.9-12.16C13.38 26.54 10 21.68 10 16h28c0 5.68-3.38 10.54-8.22 12.74l1.2 1.86c-1.28.52-2.36 1.36-3.2 2.42l-2.04-3.14c-.58.08-1.16.12-1.74.12-.58 0-1.16-.04-1.74-.12L18.28 36h10.08c.84-2.32 3.04-4 5.64-4 3.32 0 6 2.68 6 6s-2.68 6-6 6zm0-8c-1.1 0-2 .9-2 2s.9 2 2 2 2-.9 2-2-.9-2-2-2zM18.82 14c.68-2.74-.46-3.6-.9-4.08-1.72-1.82-2.2-3.7-1.78-5.92h1.98c-.44 2.54.08 3.08.92 4.08 2.24 2.64 2.08 3.62 1.78 5.92h-2zm4.96 0c.7-2.74-.44-3.6-.9-4.08-1.72-1.82-2.2-3.7-1.78-5.92h1.98c-.44 2.52.08 3.08.92 4.08 2.24 2.64 2.08 3.62 1.78 5.92h-2zm5.04 0c.68-2.74-.46-3.6-.9-4.08-1.72-1.82-2.2-3.7-1.78-5.92h1.98c-.44 2.54.08 3.08.92 4.08 2.24 2.64 2.08 3.62 1.78 5.92h-2z"/>
    </g>
</svg>

